<svg width="16" height="17" viewBox="0 0 16 17" fill="none" xmlns="http://www.w3.org/2000/svg">
<path opacity="0.3" d="M11.3333 4.5H2V9.83333H11.3333V4.5ZM6.66667 9.16667C5.56 9.16667 4.66667 8.27333 4.66667 7.16667C4.66667 6.06 5.56 5.16667 6.66667 5.16667C7.77333 5.16667 8.66667 6.06 8.66667 7.16667C8.66667 8.27333 7.77333 9.16667 6.66667 9.16667Z" fill="#32B6C4"/>
<path d="M11.3334 3.1665H2.00008C1.26675 3.1665 0.666748 3.7665 0.666748 4.49984V9.83317C0.666748 10.5665 1.26675 11.1665 2.00008 11.1665H11.3334C12.0667 11.1665 12.6667 10.5665 12.6667 9.83317V4.49984C12.6667 3.7665 12.0667 3.1665 11.3334 3.1665ZM2.00008 9.83317V4.49984H11.3334V9.83317H2.00008Z" fill="#32B6C4"/>
<path d="M6.66675 5.1665C5.56008 5.1665 4.66675 6.05984 4.66675 7.1665C4.66675 8.27317 5.56008 9.1665 6.66675 9.1665C7.77342 9.1665 8.66675 8.27317 8.66675 7.1665C8.66675 6.05984 7.77342 5.1665 6.66675 5.1665Z" fill="#32B6C4"/>
<path d="M15.3334 5.1665V12.4998C15.3334 13.2332 14.7334 13.8332 14.0001 13.8332H2.66675C2.66675 13.1665 2.66675 13.2332 2.66675 12.4998H14.0001V5.1665C14.7334 5.1665 14.6667 5.1665 15.3334 5.1665Z" fill="#32B6C4"/>
</svg>
