<svg width="16" height="16" viewBox="0 0 16 16" fill="none" xmlns="http://www.w3.org/2000/svg">
<path opacity="0.3" d="M8.66667 2.66675H4V13.3334H12V6.00008H8.66667V2.66675ZM10.6667 12.0001H5.33333V10.6667H10.6667V12.0001ZM10.6667 8.00008V9.33341H5.33333V8.00008H10.6667Z" fill="#818181"/>
<path d="M5.33317 10.6666H10.6665V11.9999H5.33317V10.6666ZM5.33317 7.99992H10.6665V9.33325H5.33317V7.99992ZM9.33317 1.33325H3.99984C3.2665 1.33325 2.6665 1.93325 2.6665 2.66659V13.3333C2.6665 14.0666 3.25984 14.6666 3.99317 14.6666H11.9998C12.7332 14.6666 13.3332 14.0666 13.3332 13.3333V5.33325L9.33317 1.33325ZM11.9998 13.3333H3.99984V2.66659H8.6665V5.99992H11.9998V13.3333Z" fill="#818181"/>
</svg>
