<svg width="14" height="18" viewBox="0 0 14 18" fill="none" xmlns="http://www.w3.org/2000/svg">
<path opacity="0.3" d="M7.83333 6.50016V2.3335H2V15.6668H12V6.50016H7.83333ZM6.11667 14.0002L3.16667 11.0502L4.34167 9.87516L6.10833 11.6418L9.64167 8.1085L10.8167 9.2835L6.11667 14.0002Z" fill="#818181"/>
<path d="M8.66683 0.666748H2.00016C1.0835 0.666748 0.34183 1.41675 0.34183 2.33341L0.333496 15.6667C0.333496 16.5834 1.07516 17.3334 1.99183 17.3334H12.0002C12.9168 17.3334 13.6668 16.5834 13.6668 15.6667V5.66675L8.66683 0.666748ZM12.0002 15.6667H2.00016V2.33341H7.8335V6.50008H12.0002V15.6667ZM4.35016 9.87508L3.16683 11.0501L6.11683 14.0001L10.8335 9.28341L9.65849 8.10842L6.12516 11.6417L4.35016 9.87508Z" fill="#818181"/>
</svg>
