<svg width="64" height="64" viewBox="0 0 64 64" fill="none" xmlns="http://www.w3.org/2000/svg">
<circle cx="32" cy="32" r="32" fill="#F5F5F5"/>
<path opacity="0.3" d="M32.0001 21.333C27.9601 21.333 24.6667 24.6263 24.6667 28.6663C24.6667 31.9597 26.6534 33.853 27.8001 34.6663H36.2001C37.3467 33.853 39.3334 31.9597 39.3334 28.6663C39.3334 24.6263 36.0401 21.333 32.0001 21.333Z" fill="#32B6C4"/>
<path d="M31.9999 45.3332C33.4666 45.3332 34.6666 44.1332 34.6666 42.6665H29.3333C29.3333 44.1332 30.5333 45.3332 31.9999 45.3332Z" fill="#32B6C4"/>
<path d="M37.3334 38.6665H26.6667V41.3332H37.3334V38.6665Z" fill="#32B6C4"/>
<path d="M32 18.6665C26.48 18.6665 22 23.1465 22 28.6665C22 33.7598 25.5467 36.4798 27.0267 37.3332H36.9733C38.4533 36.4798 42 33.7598 42 28.6665C42 23.1465 37.52 18.6665 32 18.6665ZM36.2 34.6665H27.8C26.6533 33.8532 24.6667 31.9598 24.6667 28.6665C24.6667 24.6265 27.96 21.3332 32 21.3332C36.04 21.3332 39.3333 24.6265 39.3333 28.6665C39.3333 31.9598 37.3467 33.8532 36.2 34.6665Z" fill="#32B6C4"/>
</svg>
