<svg width="14" height="15" viewBox="0 0 14 15" fill="none" xmlns="http://www.w3.org/2000/svg">
<path d="M7.00016 0.833252C3.32016 0.833252 0.333496 3.81992 0.333496 7.49992C0.333496 11.1799 3.32016 14.1666 7.00016 14.1666C10.6802 14.1666 13.6668 11.1799 13.6668 7.49992C13.6668 3.81992 10.6802 0.833252 7.00016 0.833252ZM7.04016 12.1666V10.8266C7.02683 10.8266 7.0135 10.8266 7.00016 10.8266C6.14683 10.8266 5.2935 10.4999 4.64016 9.85325C3.50016 8.71325 3.36016 6.95325 4.2135 5.65992L4.94683 6.39325C4.4735 7.27992 4.5935 8.39992 5.34016 9.14659C5.80683 9.61325 6.42016 9.83325 7.0335 9.81992V8.39325L8.92016 10.2799L7.04016 12.1666ZM9.78016 9.33992L9.04683 8.60659C9.52016 7.71992 9.40016 6.59992 8.6535 5.85325C8.1935 5.39325 7.60016 5.16659 7.00016 5.16659C6.98683 5.16659 6.9735 5.16659 6.96016 5.16659V6.59992L5.0735 4.71992L6.96016 2.83325V4.17992C7.82683 4.16659 8.70016 4.47992 9.36016 5.14659C10.4935 6.27992 10.6335 8.04659 9.78016 9.33992Z" fill="#32B6C4"/>
</svg>
