<svg width="16" height="17" viewBox="0 0 16 17" fill="none" xmlns="http://www.w3.org/2000/svg">
<path opacity="0.3" d="M6.66675 13.1668H2.66675V11.8335H6.66675V13.1668ZM6.66675 10.5002H2.66675V9.16683H6.66675V10.5002ZM6.66675 7.8335H2.66675V6.50016H6.66675V7.8335ZM6.66675 5.16683H2.66675V3.8335H6.66675V5.16683ZM13.3334 13.1668H8.00008V6.50016H13.3334V13.1668ZM12.0001 7.8335H9.33341V9.16683H12.0001V7.8335ZM12.0001 10.5002H9.33341V11.8335H12.0001V10.5002Z" fill="#32B6C4"/>
<path d="M7.99992 5.16667V2.5H1.33325V14.5H14.6666V5.16667H7.99992ZM6.66659 13.1667H2.66659V11.8333H6.66659V13.1667ZM6.66659 10.5H2.66659V9.16667H6.66659V10.5ZM6.66659 7.83333H2.66659V6.5H6.66659V7.83333ZM6.66659 5.16667H2.66659V3.83333H6.66659V5.16667ZM13.3333 13.1667H7.99992V6.5H13.3333V13.1667ZM11.9999 7.83333H9.33325V9.16667H11.9999V7.83333ZM11.9999 10.5H9.33325V11.8333H11.9999V10.5Z" fill="#32B6C4"/>
</svg>
