<svg width="20" height="20" viewBox="0 0 20 20" fill="none" xmlns="http://www.w3.org/2000/svg">
<path opacity="0.3" d="M13.7499 4.16675C12.4666 4.16675 11.2166 4.99175 10.7833 6.13341H9.22492C8.78325 4.99175 7.53325 4.16675 6.24992 4.16675C4.58325 4.16675 3.33325 5.41675 3.33325 7.08341C3.33325 9.49175 5.94992 11.8667 9.91658 15.4584L9.99992 15.5417L10.0833 15.4584C14.0499 11.8667 16.6666 9.49175 16.6666 7.08341C16.6666 5.41675 15.4166 4.16675 13.7499 4.16675Z" fill="#32B6C4"/>
<path d="M13.7501 2.5C12.3001 2.5 10.9084 3.175 10.0001 4.24167C9.09175 3.175 7.70008 2.5 6.25008 2.5C3.68341 2.5 1.66675 4.51667 1.66675 7.08333C1.66675 10.2333 4.50008 12.8 8.79175 16.7L10.0001 17.7917L11.2084 16.6917C15.5001 12.8 18.3334 10.2333 18.3334 7.08333C18.3334 4.51667 16.3167 2.5 13.7501 2.5ZM10.0834 15.4583L10.0001 15.5417L9.91675 15.4583C5.95008 11.8667 3.33341 9.49167 3.33341 7.08333C3.33341 5.41667 4.58341 4.16667 6.25008 4.16667C7.53341 4.16667 8.78341 4.99167 9.22508 6.13333H10.7834C11.2167 4.99167 12.4667 4.16667 13.7501 4.16667C15.4167 4.16667 16.6667 5.41667 16.6667 7.08333C16.6667 9.49167 14.0501 11.8667 10.0834 15.4583Z" fill="#32B6C4"/>
</svg>
