<svg width="20" height="20" viewBox="0 0 20 20" fill="none" xmlns="http://www.w3.org/2000/svg">
<path opacity="0.3" d="M13.7502 4.16675C12.4668 4.16675 11.2168 4.99175 10.7835 6.13341H9.22516C8.7835 4.99175 7.5335 4.16675 6.25016 4.16675C4.5835 4.16675 3.3335 5.41675 3.3335 7.08341C3.3335 9.49175 5.95016 11.8667 9.91683 15.4584L10.0002 15.5417L10.0835 15.4584C14.0502 11.8667 16.6668 9.49175 16.6668 7.08341C16.6668 5.41675 15.4168 4.16675 13.7502 4.16675Z" fill="#818181"/>
<path d="M13.7498 2.5C12.2998 2.5 10.9082 3.175 9.99984 4.24167C9.0915 3.175 7.69984 2.5 6.24984 2.5C3.68317 2.5 1.6665 4.51667 1.6665 7.08333C1.6665 10.2333 4.49984 12.8 8.7915 16.7L9.99984 17.7917L11.2082 16.6917C15.4998 12.8 18.3332 10.2333 18.3332 7.08333C18.3332 4.51667 16.3165 2.5 13.7498 2.5ZM10.0832 15.4583L9.99984 15.5417L9.9165 15.4583C5.94984 11.8667 3.33317 9.49167 3.33317 7.08333C3.33317 5.41667 4.58317 4.16667 6.24984 4.16667C7.53317 4.16667 8.78317 4.99167 9.22484 6.13333H10.7832C11.2165 4.99167 12.4665 4.16667 13.7498 4.16667C15.4165 4.16667 16.6665 5.41667 16.6665 7.08333C16.6665 9.49167 14.0498 11.8667 10.0832 15.4583Z" fill="#818181"/>
</svg>
