<svg width="20" height="20" viewBox="0 0 20 20" fill="none" xmlns="http://www.w3.org/2000/svg">
<path d="M9.99984 9.16667C9.08317 9.16667 8.33317 9.91667 8.33317 10.8333C8.33317 11.75 9.08317 12.5 9.99984 12.5C10.9165 12.5 11.6665 11.75 11.6665 10.8333C11.6665 9.91667 10.9165 9.16667 9.99984 9.16667ZM14.9998 10.8333C14.9998 8.075 12.7582 5.83333 9.99984 5.83333C7.2415 5.83333 4.99984 8.075 4.99984 10.8333C4.99984 12.6833 6.00817 14.2917 7.49984 15.1583L8.33317 13.7083C7.3415 13.125 6.6665 12.0667 6.6665 10.8333C6.6665 8.99167 8.15817 7.5 9.99984 7.5C11.8415 7.5 13.3332 8.99167 13.3332 10.8333C13.3332 12.0667 12.6582 13.125 11.6665 13.7083L12.4998 15.1583C13.9915 14.2917 14.9998 12.6833 14.9998 10.8333ZM9.99984 2.5C5.39984 2.5 1.6665 6.23333 1.6665 10.8333C1.6665 13.9167 3.3415 16.6 5.82484 18.0417L6.65817 16.6C4.67484 15.4417 3.33317 13.3 3.33317 10.8333C3.33317 7.15 6.3165 4.16667 9.99984 4.16667C13.6832 4.16667 16.6665 7.15 16.6665 10.8333C16.6665 13.3 15.3248 15.4417 13.3332 16.6L14.1665 18.0417C16.6582 16.6 18.3332 13.9167 18.3332 10.8333C18.3332 6.23333 14.5998 2.5 9.99984 2.5Z" fill="#32B6C4"/>
</svg>
