<svg width="24" height="25" viewBox="0 0 24 25" fill="none" xmlns="http://www.w3.org/2000/svg">
<path d="M22.2026 4.63794H1.79742C0.804703 4.63794 0 5.44264 0 6.43536V18.5647C0 19.5574 0.804703 20.3621 1.79742 20.3621H22.2026C23.1952 20.3621 24 19.5574 24 18.5647V6.43536C24 5.44264 23.1953 4.63794 22.2026 4.63794Z" fill="#41479B"/>
<path d="M23.9751 6.13827C23.8335 5.28706 23.094 4.63794 22.2026 4.63794H21.7349L14.069 9.66046V4.63799H9.93103V9.6605L2.26509 4.63799H1.79742C0.906 4.63799 0.166547 5.28706 0.0248906 6.13831L6.57698 10.4311H0V14.5691H6.57698L0.0248906 18.8618C0.166547 19.713 0.906 20.3621 1.79742 20.3621H2.26509L9.93103 15.3396V20.3621H14.069V15.3396L21.7349 20.3621H22.2026C23.094 20.3621 23.8335 19.713 23.9751 18.8618L17.423 14.569H24V10.431H17.423L23.9751 6.13827Z" fill="#F5F5F5"/>
<path d="M13.2414 4.63794H10.7586V11.2586H0V13.7414H10.7586V20.3621H13.2414V13.7414H24V11.2586H13.2414V4.63794Z" fill="#FF4B55"/>
<path d="M1.16193 20.2463L9.908 14.5691H8.38794L0.432129 19.7334C0.626801 19.9606 0.876973 20.1386 1.16193 20.2463Z" fill="#FF4B55"/>
<path d="M16.2369 14.5691H14.7168L23.1878 20.0678C23.4249 19.9121 23.6227 19.7018 23.7638 19.4549L16.2369 14.5691Z" fill="#FF4B55"/>
<path d="M0.189941 5.63172L7.58354 10.4311H9.1036L0.725535 4.99268C0.500582 5.16011 0.316504 5.37902 0.189941 5.63172Z" fill="#FF4B55"/>
<path d="M15.5889 10.4309L23.5593 5.25711C23.3625 5.03066 23.1103 4.85366 22.8234 4.74805L14.0688 10.4309H15.5889Z" fill="#FF4B55"/>
</svg>
