<svg width="14" height="13" viewBox="0 0 14 13" fill="none" xmlns="http://www.w3.org/2000/svg">
<path d="M13.6666 5.83333V0.5H8.99992V2.5H4.99992V0.5H0.333252V5.83333H4.99992V3.83333H6.33325V10.5H8.99992V12.5H13.6666V7.16667H8.99992V9.16667H7.66659V3.83333H8.99992V5.83333H13.6666ZM3.66659 4.5H1.66659V1.83333H3.66659V4.5ZM10.3333 8.5H12.3333V11.1667H10.3333V8.5ZM10.3333 1.83333H12.3333V4.5H10.3333V1.83333Z" fill="#32B6C4"/>
<path opacity="0.3" d="M3.6665 1.8335V4.50016H1.6665V1.8335H3.6665Z" fill="#32B6C4"/>
<path opacity="0.3" d="M12.3333 1.8335V4.50016H10.3333V1.8335H12.3333Z" fill="#E6F6F8"/>
<path opacity="0.3" d="M12.3333 8.5V11.1667H10.3333V8.5H12.3333Z" fill="#E6F6F8"/>
</svg>
