<svg width="24" height="17" viewBox="0 0 24 17" fill="none" xmlns="http://www.w3.org/2000/svg">
<path d="M13.2414 0.637939H10.7586V7.25861H0V9.74139H10.7586V16.3621H13.2414V9.74139H24V7.25861H13.2414V0.637939Z" fill="#FF4B55"/>
<path d="M1.16193 16.2463L9.908 10.5691H8.38794L0.432129 15.7334C0.626801 15.9606 0.876973 16.1386 1.16193 16.2463Z" fill="#FF4B55"/>
<path d="M16.2369 10.5691H14.7168L23.1878 16.0678C23.4249 15.9121 23.6227 15.7018 23.7638 15.4549L16.2369 10.5691Z" fill="#FF4B55"/>
<path d="M0.189941 1.63172L7.58354 6.43111H9.1036L0.725535 0.992676C0.500582 1.16011 0.316504 1.37902 0.189941 1.63172Z" fill="#FF4B55"/>
<path d="M15.5889 6.43093L23.5593 1.25711C23.3625 1.03066 23.1103 0.853656 22.8234 0.748047L14.0688 6.43093H15.5889Z" fill="#FF4B55"/>
</svg>
