<svg width="16" height="17" viewBox="0 0 16 17" fill="none" xmlns="http://www.w3.org/2000/svg">
<path opacity="0.3" d="M7.99984 3.16675C5.05984 3.16675 2.6665 5.56008 2.6665 8.50008C2.6665 11.4401 5.05984 13.8334 7.99984 13.8334C10.9398 13.8334 13.3332 11.4401 13.3332 8.50008C13.3332 5.56008 10.9398 3.16675 7.99984 3.16675ZM8.6665 11.8334H7.33317V7.83341H8.6665V11.8334ZM8.6665 6.50008H7.33317V5.16675H8.6665V6.50008Z" fill="#4E4E4E"/>
<path d="M7.3335 5.16659H8.66683V6.49992H7.3335V5.16659ZM7.3335 7.83325H8.66683V11.8333H7.3335V7.83325ZM8.00016 1.83325C4.32016 1.83325 1.3335 4.81992 1.3335 8.49992C1.3335 12.1799 4.32016 15.1666 8.00016 15.1666C11.6802 15.1666 14.6668 12.1799 14.6668 8.49992C14.6668 4.81992 11.6802 1.83325 8.00016 1.83325ZM8.00016 13.8333C5.06016 13.8333 2.66683 11.4399 2.66683 8.49992C2.66683 5.55992 5.06016 3.16659 8.00016 3.16659C10.9402 3.16659 13.3335 5.55992 13.3335 8.49992C13.3335 11.4399 10.9402 13.8333 8.00016 13.8333Z" fill="#4E4E4E"/>
</svg>
