<svg width="16" height="16" viewBox="0 0 16 16" fill="none" xmlns="http://www.w3.org/2000/svg">
<path opacity="0.3" d="M2.6665 4H9.39984C9.5465 4.71333 9.9265 5.33333 10.4465 5.80667L7.99984 7.33333L2.6665 4ZM2.6665 5.33333V12H13.3332V6.6C13.1198 6.64667 12.8932 6.66667 12.6665 6.66667C12.2665 6.66667 11.8932 6.58667 11.5332 6.45333L7.99984 8.66667L2.6665 5.33333Z" fill="#818181"/>
<path d="M13.3335 6.59992C13.8268 6.49992 14.2802 6.27992 14.6668 5.98659V11.9999C14.6668 12.7333 14.0668 13.3333 13.3335 13.3333H2.66683C1.9335 13.3333 1.3335 12.7333 1.3335 11.9999V3.99992C1.3335 3.26659 1.9335 2.66659 2.66683 2.66659H9.40016C9.36016 2.87992 9.3335 3.10659 9.3335 3.33325C9.3335 3.55992 9.36016 3.78659 9.40016 3.99992H2.66683L8.00016 7.33325L10.4468 5.80659C10.7602 6.09325 11.1268 6.31325 11.5335 6.45992L8.00016 8.66659L2.66683 5.33325V11.9999H13.3335V6.59992ZM10.6668 3.33325C10.6668 4.43992 11.5602 5.33325 12.6668 5.33325C13.7735 5.33325 14.6668 4.43992 14.6668 3.33325C14.6668 2.22659 13.7735 1.33325 12.6668 1.33325C11.5602 1.33325 10.6668 2.22659 10.6668 3.33325Z" fill="#818181"/>
</svg>
