<svg width="20" height="20" viewBox="0 0 20 20" fill="none" xmlns="http://www.w3.org/2000/svg">
<path opacity="0.3" d="M10.0002 9.16667L16.6668 5H3.3335L10.0002 9.16667ZM3.3335 6.66667V15H16.6668V6.66667L10.0002 10.8333L3.3335 6.66667Z" fill="#818181"/>
<path d="M16.6665 3.33325H3.33317C2.4165 3.33325 1.6665 4.08325 1.6665 4.99992V14.9999C1.6665 15.9166 2.4165 16.6666 3.33317 16.6666H16.6665C17.5832 16.6666 18.3332 15.9166 18.3332 14.9999V4.99992C18.3332 4.08325 17.5832 3.33325 16.6665 3.33325ZM16.6665 14.9999H3.33317V6.66658L9.99984 10.8333L16.6665 6.66658V14.9999ZM9.99984 9.16658L3.33317 4.99992H16.6665L9.99984 9.16658Z" fill="#818181"/>
</svg>
