<svg width="16" height="16" viewBox="0 0 16 16" fill="none" xmlns="http://www.w3.org/2000/svg">
<path opacity="0.3" d="M2.6665 5.33325H13.3332V12.6666H2.6665V5.33325Z" fill="#818181"/>
<path d="M13.3335 3.99992H10.6668V2.66659C10.6668 1.92659 10.0735 1.33325 9.3335 1.33325H6.66683C5.92683 1.33325 5.3335 1.92659 5.3335 2.66659V3.99992H2.66683C1.92683 3.99992 1.34016 4.59325 1.34016 5.33325L1.3335 12.6666C1.3335 13.4066 1.92683 13.9999 2.66683 13.9999H13.3335C14.0735 13.9999 14.6668 13.4066 14.6668 12.6666V5.33325C14.6668 4.59325 14.0735 3.99992 13.3335 3.99992ZM6.66683 2.66659H9.3335V3.99992H6.66683V2.66659ZM13.3335 12.6666H2.66683V5.33325H13.3335V12.6666Z" fill="#818181"/>
</svg>
