<svg width="16" height="17" viewBox="0 0 16 17" fill="none" xmlns="http://www.w3.org/2000/svg">
<path opacity="0.3" d="M2.66675 5.8335H13.3334V13.1668H2.66675V5.8335Z" fill="#32B6C4"/>
<path d="M13.3333 4.50016H10.6666V3.16683C10.6666 2.42683 10.0733 1.8335 9.33325 1.8335H6.66659C5.92659 1.8335 5.33325 2.42683 5.33325 3.16683V4.50016H2.66659C1.92659 4.50016 1.33992 5.0935 1.33992 5.8335L1.33325 13.1668C1.33325 13.9068 1.92659 14.5002 2.66659 14.5002H13.3333C14.0733 14.5002 14.6666 13.9068 14.6666 13.1668V5.8335C14.6666 5.0935 14.0733 4.50016 13.3333 4.50016ZM6.66659 3.16683H9.33325V4.50016H6.66659V3.16683ZM13.3333 13.1668H2.66659V5.8335H13.3333V13.1668Z" fill="#32B6C4"/>
</svg>
