<svg width="16" height="17" viewBox="0 0 16 17" fill="none" xmlns="http://www.w3.org/2000/svg">
<path opacity="0.3" d="M3.38675 5.83336H5.35341C5.56675 5.00003 5.87341 4.20003 6.27341 3.46003C5.04675 3.88003 4.02675 4.72669 3.38675 5.83336ZM5.00008 8.50003C5.00008 8.04669 5.04008 7.60669 5.09341 7.16669H2.84008C2.73341 7.59336 2.66675 8.04003 2.66675 8.50003C2.66675 8.96003 2.73341 9.40669 2.84008 9.83336H5.09341C5.04008 9.39336 5.00008 8.95336 5.00008 8.50003ZM3.38675 11.1667C4.02675 12.2734 5.04675 13.12 6.27341 13.54C5.87341 12.8 5.56675 12 5.35341 11.1667H3.38675ZM8.00008 3.19336C7.44675 3.99336 7.01341 4.88003 6.72675 5.83336H9.27341C8.98675 4.88003 8.55341 3.99336 8.00008 3.19336ZM12.6134 5.83336C11.9734 4.73336 10.9534 3.88003 9.72675 3.46003C10.1267 4.20003 10.4334 5.00003 10.6467 5.83336H12.6134ZM8.00008 13.8067C8.55341 13.0067 8.98675 12.12 9.27341 11.1667H6.72675C7.01341 12.12 7.44675 13.0067 8.00008 13.8067ZM9.72675 13.54C10.9534 13.12 11.9734 12.2667 12.6134 11.1667H10.6467C10.4334 12 10.1267 12.8 9.72675 13.54ZM13.1601 7.16669H10.9067C10.9601 7.60669 11.0001 8.04669 11.0001 8.50003C11.0001 8.95336 10.9601 9.39336 10.9067 9.83336H13.1601C13.2667 9.40669 13.3334 8.96003 13.3334 8.50003C13.3334 8.04003 13.2667 7.59336 13.1601 7.16669ZM6.44008 7.16669C6.38008 7.60003 6.33341 8.04669 6.33341 8.50003C6.33341 8.95336 6.38008 9.39336 6.44008 9.83336H9.56008C9.62008 9.39336 9.66675 8.95336 9.66675 8.50003C9.66675 8.04669 9.62008 7.60003 9.56008 7.16669H6.44008Z" fill="#32B6C4"/>
<path d="M7.99325 1.8335C4.31325 1.8335 1.33325 4.82016 1.33325 8.50016C1.33325 12.1802 4.31325 15.1668 7.99325 15.1668C11.6799 15.1668 14.6666 12.1802 14.6666 8.50016C14.6666 4.82016 11.6799 1.8335 7.99325 1.8335ZM12.6133 5.8335H10.6466C10.4333 5.00016 10.1266 4.20016 9.72659 3.46016C10.9533 3.88016 11.9733 4.7335 12.6133 5.8335ZM7.99992 3.1935C8.55325 3.9935 8.98659 4.88016 9.27325 5.8335H6.72659C7.01325 4.88016 7.44659 3.9935 7.99992 3.1935ZM2.83992 9.8335C2.73325 9.40683 2.66659 8.96016 2.66659 8.50016C2.66659 8.04016 2.73325 7.5935 2.83992 7.16683H5.09325C5.03992 7.60683 4.99992 8.04683 4.99992 8.50016C4.99992 8.9535 5.03992 9.3935 5.09325 9.8335H2.83992ZM3.38659 11.1668H5.35325C5.56659 12.0002 5.87325 12.8002 6.27325 13.5402C5.04659 13.1202 4.02659 12.2735 3.38659 11.1668ZM5.35325 5.8335H3.38659C4.02659 4.72683 5.04659 3.88016 6.27325 3.46016C5.87325 4.20016 5.56659 5.00016 5.35325 5.8335ZM7.99992 13.8068C7.44659 13.0068 7.01325 12.1202 6.72659 11.1668H9.27325C8.98659 12.1202 8.55325 13.0068 7.99992 13.8068ZM9.55992 9.8335H6.43992C6.37992 9.3935 6.33325 8.9535 6.33325 8.50016C6.33325 8.04683 6.37992 7.60016 6.43992 7.16683H9.55992C9.61992 7.60016 9.66659 8.04683 9.66659 8.50016C9.66659 8.9535 9.61992 9.3935 9.55992 9.8335ZM9.72659 13.5402C10.1266 12.8002 10.4333 12.0002 10.6466 11.1668H12.6133C11.9733 12.2668 10.9533 13.1202 9.72659 13.5402ZM10.9066 9.8335C10.9599 9.3935 10.9999 8.9535 10.9999 8.50016C10.9999 8.04683 10.9599 7.60683 10.9066 7.16683H13.1599C13.2666 7.5935 13.3333 8.04016 13.3333 8.50016C13.3333 8.96016 13.2666 9.40683 13.1599 9.8335H10.9066Z" fill="#32B6C4"/>
</svg>
