<svg width="16" height="17" viewBox="0 0 16 17" fill="none" xmlns="http://www.w3.org/2000/svg">
<path opacity="0.3" d="M8 3.16699C5.76667 3.16699 4 4.88033 4 7.30032C4 8.86032 5.3 10.927 8 13.3937C10.7 10.927 12 8.86699 12 7.30032C12 4.88033 10.2333 3.16699 8 3.16699ZM8 8.50033C7.26667 8.50033 6.66667 7.90033 6.66667 7.16699C6.66667 6.43366 7.26667 5.83366 8 5.83366C8.73333 5.83366 9.33333 6.43366 9.33333 7.16699C9.33333 7.90033 8.73333 8.50033 8 8.50033Z" fill="#32B6C4"/>
<path d="M8.00008 5.8335C7.26675 5.8335 6.66675 6.4335 6.66675 7.16683C6.66675 7.90016 7.26675 8.50016 8.00008 8.50016C8.73341 8.50016 9.33341 7.90016 9.33341 7.16683C9.33341 6.4335 8.73341 5.8335 8.00008 5.8335ZM8.00008 1.8335C5.20008 1.8335 2.66675 3.98016 2.66675 7.30016C2.66675 9.5135 4.44675 12.1335 8.00008 15.1668C11.5534 12.1335 13.3334 9.5135 13.3334 7.30016C13.3334 3.98016 10.8001 1.8335 8.00008 1.8335ZM8.00008 13.3868C5.30008 10.9202 4.00008 8.86016 4.00008 7.2935C4.00008 4.88016 5.76675 3.16683 8.00008 3.16683C10.2334 3.16683 12.0001 4.88016 12.0001 7.30016C12.0001 8.86016 10.7001 10.9268 8.00008 13.3868Z" fill="#32B6C4"/>
</svg>
