<svg width="20" height="20" viewBox="0 0 20 20" fill="none" xmlns="http://www.w3.org/2000/svg">
<path opacity="0.3" d="M6.6665 13.1085C7.8915 11.7168 9.6665 10.8335 11.6665 10.8335C13.6665 10.8335 15.4415 11.7168 16.6665 13.1085V3.3335H6.6665V13.1085ZM11.6665 4.16683C13.0498 4.16683 14.1665 5.2835 14.1665 6.66683C14.1665 8.05016 13.0498 9.16683 11.6665 9.16683C10.2832 9.16683 9.1665 8.05016 9.1665 6.66683C9.1665 5.2835 10.2832 4.16683 11.6665 4.16683Z" fill="#818181"/>
<path d="M3.33317 5.00008H1.6665V16.6667C1.6665 17.5834 2.4165 18.3334 3.33317 18.3334H14.9998V16.6667H3.33317V5.00008ZM11.6665 9.16675C13.0498 9.16675 14.1665 8.05008 14.1665 6.66675C14.1665 5.28341 13.0498 4.16675 11.6665 4.16675C10.2832 4.16675 9.1665 5.28341 9.1665 6.66675C9.1665 8.05008 10.2832 9.16675 11.6665 9.16675ZM11.6665 5.83342C12.1248 5.83342 12.4998 6.20842 12.4998 6.66675C12.4998 7.12508 12.1248 7.50008 11.6665 7.50008C11.2082 7.50008 10.8332 7.12508 10.8332 6.66675C10.8332 6.20842 11.2082 5.83342 11.6665 5.83342ZM16.6665 1.66675H6.6665C5.74984 1.66675 4.99984 2.41675 4.99984 3.33341V13.3334C4.99984 14.2501 5.74984 15.0001 6.6665 15.0001H16.6665C17.5832 15.0001 18.3332 14.2501 18.3332 13.3334V3.33341C18.3332 2.41675 17.5832 1.66675 16.6665 1.66675ZM8.90817 13.3334C9.69984 12.8084 10.6498 12.5001 11.6665 12.5001C12.6832 12.5001 13.6332 12.8084 14.4248 13.3334H8.90817ZM16.6665 13.1084C15.4415 11.7167 13.6665 10.8334 11.6665 10.8334C9.6665 10.8334 7.8915 11.7167 6.6665 13.1084V3.33341H16.6665V13.1084Z" fill="#818181"/>
</svg>
