<svg width="64" height="64" viewBox="0 0 64 64" fill="none" xmlns="http://www.w3.org/2000/svg">
<circle cx="32" cy="32" r="32" fill="#F5F5F5"/>
<path d="M43.3333 21.3333C39.8533 22.2667 35.7733 22.6667 32 22.6667C28.2267 22.6667 24.1467 22.2667 20.6667 21.3333L20 24C22.48 24.6667 25.3333 25.1067 28 25.3333V41.3333H30.6667V33.3333H33.3333V41.3333H36V25.3333C38.6667 25.1067 41.52 24.6667 44 24L43.3333 21.3333ZM32 21.3333C33.4667 21.3333 34.6667 20.1333 34.6667 18.6667C34.6667 17.2 33.4667 16 32 16C30.5333 16 29.3333 17.2 29.3333 18.6667C29.3333 20.1333 30.5333 21.3333 32 21.3333ZM25.3333 48H28V45.3333H25.3333V48ZM30.6667 48H33.3333V45.3333H30.6667V48ZM36 48H38.6667V45.3333H36V48Z" fill="#32B6C4"/>
</svg>
