<svg width="20" height="20" viewBox="0 0 20 20" fill="none" xmlns="http://www.w3.org/2000/svg">
<path opacity="0.3" d="M10.7834 10.0001L10 7.40845L9.2167 10.0001H6.8667L8.75837 11.3501L7.98337 13.8584L10 12.3251L12.0167 13.8584L11.2417 11.3501L13.1334 10.0001H10.7834Z" fill="#32B6C4"/>
<path d="M18.3332 8.33342H12.0165L9.99984 1.66675L7.98317 8.33342H1.6665L6.80817 12.0084L4.85817 18.3334L9.99984 14.4251L15.1415 18.3334L13.1832 12.0084L18.3332 8.33342ZM12.0165 13.8584L9.99984 12.3251L7.98317 13.8584L8.75817 11.3501L6.8665 10.0001H9.2165L9.99984 7.40842L10.7832 10.0001H13.1332L11.2415 11.3501L12.0165 13.8584Z" fill="#32B6C4"/>
</svg>
