<svg width="16" height="16" viewBox="0 0 16 16" fill="none" xmlns="http://www.w3.org/2000/svg">
<path opacity="0.3" d="M8.66667 2.66699H4V13.3337H12V6.00033H8.66667V2.66699ZM10.6667 10.0003H8.66667V12.667H7.33333V10.0003H5.33333L8.00667 7.33366L10.6667 10.0003Z" fill="white"/>
<path d="M9.33341 1.3335H4.00008C3.26675 1.3335 2.67341 1.9335 2.67341 2.66683L2.66675 13.3335C2.66675 14.0668 3.26008 14.6668 3.99341 14.6668H12.0001C12.7334 14.6668 13.3334 14.0668 13.3334 13.3335V5.3335L9.33341 1.3335ZM12.0001 13.3335H4.00008V2.66683H8.66675V6.00016H12.0001V13.3335Z" fill="white"/>
<path d="M5.3335 10.0002H7.3335V12.6668H8.66683V10.0002H10.6668L8.00683 7.3335L5.3335 10.0002Z" fill="white"/>
</svg>
