<svg width="64" height="64" viewBox="0 0 64 64" fill="none" xmlns="http://www.w3.org/2000/svg">
<circle cx="32" cy="32" r="32" fill="#F5F5F5"/>
<path opacity="0.3" d="M31.9999 29.3333C33.4727 29.3333 34.6666 28.1394 34.6666 26.6667C34.6666 25.1939 33.4727 24 31.9999 24C30.5272 24 29.3333 25.1939 29.3333 26.6667C29.3333 28.1394 30.5272 29.3333 31.9999 29.3333Z" fill="#32B6C4"/>
<path opacity="0.3" d="M32 36C28.4 36 24.2667 37.72 24 38.68V40H40V38.6667C39.7333 37.72 35.6 36 32 36Z" fill="#32B6C4"/>
<path d="M31.9999 32.0002C34.9466 32.0002 37.3333 29.6135 37.3333 26.6668C37.3333 23.7202 34.9466 21.3335 31.9999 21.3335C29.0533 21.3335 26.6666 23.7202 26.6666 26.6668C26.6666 29.6135 29.0533 32.0002 31.9999 32.0002ZM31.9999 24.0002C33.4666 24.0002 34.6666 25.2002 34.6666 26.6668C34.6666 28.1335 33.4666 29.3335 31.9999 29.3335C30.5333 29.3335 29.3333 28.1335 29.3333 26.6668C29.3333 25.2002 30.5333 24.0002 31.9999 24.0002ZM31.9999 33.3335C28.4399 33.3335 21.3333 35.1202 21.3333 38.6668V42.6668H42.6666V38.6668C42.6666 35.1202 35.5599 33.3335 31.9999 33.3335ZM39.9999 40.0002H23.9999V38.6802C24.2666 37.7202 28.3999 36.0002 31.9999 36.0002C35.5999 36.0002 39.7333 37.7202 39.9999 38.6668V40.0002Z" fill="#32B6C4"/>
</svg>
