<svg width="14" height="13" viewBox="0 0 14 13" fill="none" xmlns="http://www.w3.org/2000/svg">
<path d="M12.3333 3.00016H10.8799C10.9533 2.7935 10.9999 2.56683 10.9999 2.3335C10.9999 1.22683 10.1066 0.333496 8.99992 0.333496C8.29992 0.333496 7.69325 0.693496 7.33325 1.2335L6.99992 1.68016L6.66659 1.22683C6.30659 0.693496 5.69992 0.333496 4.99992 0.333496C3.89325 0.333496 2.99992 1.22683 2.99992 2.3335C2.99992 2.56683 3.04659 2.7935 3.11992 3.00016H1.66659C0.926585 3.00016 0.339919 3.5935 0.339919 4.3335L0.333252 11.6668C0.333252 12.4068 0.926585 13.0002 1.66659 13.0002H12.3333C13.0733 13.0002 13.6666 12.4068 13.6666 11.6668V4.3335C13.6666 3.5935 13.0733 3.00016 12.3333 3.00016ZM8.99992 1.66683C9.36659 1.66683 9.66659 1.96683 9.66659 2.3335C9.66659 2.70016 9.36659 3.00016 8.99992 3.00016C8.63325 3.00016 8.33325 2.70016 8.33325 2.3335C8.33325 1.96683 8.63325 1.66683 8.99992 1.66683ZM4.99992 1.66683C5.36659 1.66683 5.66659 1.96683 5.66659 2.3335C5.66659 2.70016 5.36659 3.00016 4.99992 3.00016C4.63325 3.00016 4.33325 2.70016 4.33325 2.3335C4.33325 1.96683 4.63325 1.66683 4.99992 1.66683ZM12.3333 11.6668H1.66659V10.3335H12.3333V11.6668ZM12.3333 8.3335H1.66659V4.3335H5.05325L3.66659 6.22016L4.74659 7.00016L6.33325 4.84016L6.99992 3.9335L7.66659 4.84016L9.25325 7.00016L10.3333 6.22016L8.94659 4.3335H12.3333V8.3335Z" fill="#32B6C4"/>
</svg>
