<svg width="20" height="20" viewBox="0 0 20 20" fill="none" xmlns="http://www.w3.org/2000/svg">
<path opacity="0.3" d="M9.99992 8.33333C10.9204 8.33333 11.6666 7.58714 11.6666 6.66667C11.6666 5.74619 10.9204 5 9.99992 5C9.07944 5 8.33325 5.74619 8.33325 6.66667C8.33325 7.58714 9.07944 8.33333 9.99992 8.33333Z" fill="#32B6C4"/>
<path opacity="0.3" d="M10 12.5C7.75 12.5 5.16667 13.575 5 14.175V15H15V14.1667C14.8333 13.575 12.25 12.5 10 12.5Z" fill="#32B6C4"/>
<path d="M9.99992 10.0002C11.8416 10.0002 13.3333 8.5085 13.3333 6.66683C13.3333 4.82516 11.8416 3.3335 9.99992 3.3335C8.15825 3.3335 6.66658 4.82516 6.66658 6.66683C6.66658 8.5085 8.15825 10.0002 9.99992 10.0002ZM9.99992 5.00016C10.9166 5.00016 11.6666 5.75016 11.6666 6.66683C11.6666 7.5835 10.9166 8.3335 9.99992 8.3335C9.08325 8.3335 8.33325 7.5835 8.33325 6.66683C8.33325 5.75016 9.08325 5.00016 9.99992 5.00016ZM9.99992 10.8335C7.77492 10.8335 3.33325 11.9502 3.33325 14.1668V16.6668H16.6666V14.1668C16.6666 11.9502 12.2249 10.8335 9.99992 10.8335ZM14.9999 15.0002H4.99992V14.1752C5.16659 13.5752 7.74992 12.5002 9.99992 12.5002C12.2499 12.5002 14.8333 13.5752 14.9999 14.1668V15.0002Z" fill="#32B6C4"/>
</svg>
